<?xml version="1.0" encoding="UTF-8"?>
<svg xmlns="http://www.w3.org/2000/svg" version="1.2" baseProfile="tiny-ps" viewBox="0 0 100 100">
  <title>Deniz Tulay</title>
  <!-- Background -->
  <rect width="100" height="100" rx="8" fill="#0a0a0a"/>
  <!-- Corner pieces - Top Left -->
  <path d="M20 35 L20 20 L35 20" stroke="#DBD6CC" stroke-width="3" fill="none"/>
  <!-- Corner pieces - Top Right -->
  <path d="M65 20 L80 20 L80 35" stroke="#DBD6CC" stroke-width="3" fill="none"/>
  <!-- Corner pieces - Bottom Right -->
  <path d="M80 65 L80 80 L65 80" stroke="#DBD6CC" stroke-width="3" fill="none"/>
  <!-- Corner pieces - Bottom Left -->
  <path d="M35 80 L20 80 L20 65" stroke="#DBD6CC" stroke-width="3" fill="none"/>
  <!-- D letter -->
  <path d="M33 42 L33 58 L38 58 C43 58 46 55 46 50 C46 45 43 42 38 42 Z M36 45 L38 45 C41 45 43 47 43 50 C43 53 41 55 38 55 L36 55 Z" fill="#DBD6CC"/>
  <!-- T letter -->
  <path d="M52 42 L52 45 L56 45 L56 58 L59 58 L59 45 L63 45 L63 42 Z" fill="#DBD6CC"/>
</svg>
